<?xml version="1.0" encoding="utf-8"?>
<!-- Generator: Adobe Illustrator 19.0.0, SVG Export Plug-In . SVG Version: 6.00 Build 0)  -->
<!DOCTYPE svg PUBLIC "-//W3C//DTD SVG 1.1//EN" "http://www.w3.org/Graphics/SVG/1.1/DTD/svg11.dtd">
<svg version="1.1" id="Laag_1" xmlns="http://www.w3.org/2000/svg" xmlns:xlink="http://www.w3.org/1999/xlink" x="0px" y="0px"
	 width="125px" height="31px" viewBox="0 0 125 31" style="enable-background:new 0 0 125 31;" xml:space="preserve">
<style type="text/css">
	.st0{fill:#FFFFFF;}
</style>
<g>
	<path class="st0" d="M125,11.7l0,19.2l-30.4,0l0-19.2h2.3c0.2,7,5.9,12.6,12.9,12.6c7,0,12.8-5.6,12.9-12.6H125z"/>
</g>
<path class="st0" d="M98.4,11.4c0-6.3,5.1-11.4,11.4-11.4c6.3,0,11.4,5.1,11.4,11.4s-5.1,11.4-11.4,11.4
	C103.5,22.8,98.4,17.7,98.4,11.4z M109.8,11.4 M113.2,19.8c2.2,0,4-1.8,4-4c0-2.2-1.8-4-4-4s-4,1.8-4,4
	C109.2,18.1,111,19.8,113.2,19.8z M113.2,15.9"/>
<g>
	<g>
		<polygon class="st0" points="50,6.9 54.9,6.9 54.9,27.7 62.8,27.7 62.8,31 50,31 		"/>
	</g>
	<g>
		<polygon class="st0" points="68.8,11.7 68.8,31 64,31 64,11.7 		"/>
	</g>
	<g>
		<polygon class="st0" points="81.2,11.8 81.2,14.3 75.3,14.3 75.3,22.6 80.4,22.6 80.4,25 75.3,25 75.3,31 70.5,31 70.4,11.8 		"/>
	</g>
	<g>
		<polygon class="st0" points="93.1,11.8 93.1,14.3 87.2,14.3 87.2,22.6 92.4,22.6 92.4,25 87.2,25 87.2,28.4 93.2,28.4 93.2,31 
			82.4,31 82.4,11.8 		"/>
	</g>
</g>
<g>
	<g>
		<path class="st0" d="M12.9,6.9H8.2L0,31h4.9l1.9-5.7l3.3,0c1,0.1,2.7-0.5,3.6-0.9c3.6-2.3,5.3-5.3,6.7-9.4c1.2-4.9-0.4-7.2-3-7.7
			c-1.1-0.2-4.7-0.3-4.7-0.3l-0.9,2.7c1,0,3.4,0,4.2,1.1c1.2,3-0.7,6.5-2.2,9c-1.5,2.3-2.8,2.7-6,2.7L12.9,6.9z"/>
	</g>
	<g>
		<polygon class="st0" points="26.9,11.8 20.5,31 16.1,31 22.7,11.8 		"/>
	</g>
	<g>
		<polygon class="st0" points="52.2,14.3 45.7,14.3 42.9,22.6 48.7,22.6 47.9,25 42.1,25 41,28.4 47.6,28.4 46.7,31 35.6,31 
			42,11.8 53.1,11.8 		"/>
	</g>
	<g>
		<path class="st0" d="M33.4,11.8H29L22.6,31H27l2-6c0,0,3.4,0.1,4.5,0c1.4-0.3,2.8-1.2,3.7-2.5c1.4-2.2,2.7-5.8,1.3-8.8
			c-1-1.5-3-1.8-5.4-1.9l-0.6,1.7c0.6,0,1.8-0.1,2.3,0.4c1.6,1.5,0.7,4.1,0,5.9c-0.6,1.3-1.8,2.7-3.1,3.1c-0.6,0.1-1.4,0.1-2,0.1
			L33.4,11.8z"/>
	</g>
</g>
</svg>
