<?xml version="1.0" encoding="utf-8"?>
<!-- Generator: Adobe Illustrator 19.0.0, SVG Export Plug-In . SVG Version: 6.00 Build 0)  -->
<!DOCTYPE svg PUBLIC "-//W3C//DTD SVG 1.1//EN" "http://www.w3.org/Graphics/SVG/1.1/DTD/svg11.dtd">
<svg version="1.1" id="Laag_1" xmlns="http://www.w3.org/2000/svg" xmlns:xlink="http://www.w3.org/1999/xlink" x="0px" y="0px"
	 width="263px" height="47px" viewBox="0 0 263 47" style="enable-background:new 0 0 263 47;" xml:space="preserve">
<style type="text/css">
	.st0{fill:#FFFFFF;}
</style>
<g id="XMLID_19_">
	<path id="XMLID_2_" class="st0" d="M151.5,31.3c0-3.5,2.9-6.4,6.4-6.4c3.5,0,6.4,2.9,6.4,6.4s-2.9,6.4-6.4,6.4
		C154.4,37.7,151.5,34.8,151.5,31.3 M172.8,31.3c0-8.2-6.7-14.9-14.9-14.9c-8.2,0-14.9,6.7-14.9,14.9c0,8.2,6.7,14.9,14.9,14.9
		C166.1,46.2,172.8,39.5,172.8,31.3"/>
	<path id="XMLID_14_" class="st0" d="M24.4,14.7c-2-1.6-4.5-2.7-7.1-2.7c-2,0-4.6,1.1-4.6,3.4c0,2.4,2.9,3.3,4.7,3.9l2.7,0.8
		c5.7,1.7,10.1,4.6,10.1,11.2c0,4.1-1,8.3-4.3,11.1c-3.2,2.7-7.5,3.9-11.7,3.9c-5.2,0-10.3-1.7-14.5-4.7l4.6-8.6
		c2.7,2.3,5.8,4.3,9.5,4.3c2.5,0,5.2-1.3,5.2-4.1c0-3-4.2-4-6.5-4.7C6.1,26.6,1.6,24.8,1.6,16.9c0-8.3,5.9-13.8,14.2-13.8
		c4.1,0,9.2,1.3,12.9,3.4L24.4,14.7z"/>
</g>
<rect id="XMLID_13_" x="67.8" y="0" class="st0" width="9.9" height="45.3"/>
<g id="XMLID_18_">
	<path id="XMLID_12_" class="st0" d="M93.3,17.3v14.6c0,3.5,1.2,5.7,4.6,5.7c3.4,0,4.6-2.2,4.6-5.7V17.3h9.9v15.8
		c0,9.2-6.1,13.1-14.5,13.1c-8.4,0-14.5-3.9-14.5-13.1V17.3H93.3z"/>
</g>
<polygon id="XMLID_11_" class="st0" points="118.5,0 118.5,45.3 129.2,45.3 129.2,29.1 139.8,29.1 139.8,20.1 129.2,20.1 129.2,9.1 
	172.4,9.1 172.4,0 "/>
<g id="XMLID_1_">
	<path id="XMLID_10_" class="st0" d="M187,21.9h0.1c1.9-3.4,5.2-5,9.1-5h1.9v9.3c-1.5-0.5-2.7-0.7-4.2-0.7c-5.5,0-6.9,3.7-6.9,8.5
		v11.3H177v-28h9.9V21.9z"/>
	<path id="XMLID_9_" class="st0" d="M221.2,26.1c-1.4-0.9-2.9-1.6-4.6-1.6c-3.8,0-6.8,2.9-6.8,6.8c0,4,2.9,6.9,7,6.9
		c1.5,0,3.2-0.6,4.5-1.5l2.9,6.6c-3.6,2.5-7,3-9.4,3c-8.3,0-15.2-6.2-15.2-14.6c0-9,6.9-15.2,15.7-15.2c2.3,0,5.8,0.6,9,3
		L221.2,26.1z"/>
	<path id="XMLID_3_" class="st0" d="M247.3,27.2c-0.5-2.7-2.9-4.4-5.6-4.4c-2.9,0-5.3,1.5-5.9,4.4H247.3z M256.5,33h-20.9
		c0,4,2.1,6.2,6.2,6.2c2.1,0,3.7-0.7,4.7-2.6h9.5c-1.6,6.6-7.9,9.6-14.2,9.6c-9.3,0-16.2-5.2-16.2-14.9c0-9.3,6.4-14.9,15.5-14.9
		c9.7,0,15.3,6,15.3,15.5V33z"/>
	<path id="XMLID_4_" class="st0" d="M257.3,10.8v1.3h0.8c0.7,0,1.7,0.1,1.7-0.6c0-0.7-0.6-0.7-1.2-0.7H257.3z M260.5,15.3h-0.9
		l-1.3-2.4h-1v2.4h-0.8v-5.2h2.2c0.9,0,1.8,0.3,1.8,1.4c0,1-0.7,1.4-1.4,1.4L260.5,15.3z M254.5,12.7c0,2.2,1.8,3.9,3.9,3.9
		c2.1,0,3.9-1.7,3.9-3.9c0-2.2-1.8-3.9-3.9-3.9C256.2,8.8,254.5,10.5,254.5,12.7 M253.7,12.7c0-2.6,2.1-4.6,4.6-4.6
		c2.6,0,4.6,2.1,4.6,4.6c0,2.6-2.1,4.6-4.6,4.6C255.8,17.3,253.7,15.2,253.7,12.7"/>
	<path id="XMLID_21_" class="st0" d="M42.1,31.3c0-3.5,2.9-6.4,6.4-6.4s6.4,2.9,6.4,6.4s-2.9,6.4-6.4,6.4S42.1,34.8,42.1,31.3
		 M63.4,31.3c0-8.2-6.7-14.9-14.9-14.9c-8.2,0-14.9,6.7-14.9,14.9c0,8.2,6.7,14.9,14.9,14.9C56.7,46.2,63.4,39.5,63.4,31.3"/>
</g>
</svg>
